# Blender 5.1.0
# www.blender.org
mtllib tqbot_mesh.mtl
o Cylinder
v -0.041020 0.199454 -0.032627
v -0.041020 0.199454 0.047237
v -0.002109 0.195622 -0.032627
v -0.002109 0.195622 0.047237
v 0.035308 0.184271 -0.032627
v 0.035308 0.184271 0.047237
v 0.069791 0.165840 -0.032627
v 0.069791 0.165840 0.047237
v 0.100015 0.141035 -0.032627
v 0.100015 0.141035 0.047237
v 0.124820 0.110811 -0.032627
v 0.124820 0.110811 0.047237
v 0.143251 0.076328 -0.032627
v 0.143251 0.076328 0.047237
v 0.154602 0.038912 -0.032627
v 0.154602 0.038912 0.047237
v 0.158434 -0.000000 -0.032627
v 0.158434 -0.000000 0.047237
v 0.154602 -0.038912 -0.032627
v 0.154602 -0.038912 0.047237
v 0.143251 -0.076328 -0.032627
v 0.143251 -0.076328 0.047237
v 0.124820 -0.110811 -0.032627
v 0.124820 -0.110811 0.047237
v 0.100015 -0.141035 -0.032627
v 0.100015 -0.141035 0.047237
v 0.069791 -0.165840 -0.032627
v 0.069791 -0.165840 0.047237
v 0.035308 -0.184271 -0.032627
v 0.035308 -0.184271 0.047237
v -0.002109 -0.195622 -0.032627
v -0.002109 -0.195622 0.047237
v -0.041020 -0.199454 -0.032627
v -0.041020 -0.199454 0.047237
v -0.079932 -0.195622 -0.032627
v -0.079932 -0.195622 0.047237
v -0.117348 -0.184271 -0.032627
v -0.117348 -0.184271 0.047237
v -0.151831 -0.165840 -0.032627
v -0.151831 -0.165840 0.047237
v -0.182055 -0.141035 -0.032627
v -0.182055 -0.141035 0.047237
v -0.206860 -0.110811 -0.032627
v -0.206860 -0.110811 0.047237
v -0.225292 -0.076328 -0.032627
v -0.225292 -0.076328 0.047237
v -0.236642 -0.038912 -0.032627
v -0.236642 -0.038912 0.047237
v -0.240474 -0.000000 -0.032627
v -0.240474 -0.000000 0.047237
v -0.236642 0.038912 -0.032627
v -0.236642 0.038912 0.047237
v -0.225292 0.076328 -0.032627
v -0.225292 0.076328 0.047237
v -0.206860 0.110811 -0.032627
v -0.206860 0.110811 0.047237
v -0.182055 0.141035 -0.032627
v -0.182055 0.141035 0.047237
v -0.151831 0.165840 -0.032627
v -0.151831 0.165840 0.047237
v -0.117348 0.184271 -0.032627
v -0.117348 0.184271 0.047237
v -0.079932 0.195622 -0.032627
v -0.079932 0.195622 0.047237
vn 0.0980 0.9952 -0.0000
vn 0.2903 0.9569 -0.0000
vn 0.4714 0.8819 -0.0000
vn 0.6344 0.7730 -0.0000
vn 0.7730 0.6344 -0.0000
vn 0.8819 0.4714 -0.0000
vn 0.9569 0.2903 -0.0000
vn 0.9952 0.0980 -0.0000
vn 0.9952 -0.0980 -0.0000
vn 0.9569 -0.2903 -0.0000
vn 0.8819 -0.4714 -0.0000
vn 0.7730 -0.6344 -0.0000
vn 0.6344 -0.7730 -0.0000
vn 0.4714 -0.8819 -0.0000
vn 0.2903 -0.9569 -0.0000
vn 0.0980 -0.9952 -0.0000
vn -0.0980 -0.9952 -0.0000
vn -0.2903 -0.9569 -0.0000
vn -0.4714 -0.8819 -0.0000
vn -0.6344 -0.7730 -0.0000
vn -0.7730 -0.6344 -0.0000
vn -0.8819 -0.4714 -0.0000
vn -0.9569 -0.2903 -0.0000
vn -0.9952 -0.0980 -0.0000
vn -0.9952 0.0980 -0.0000
vn -0.9569 0.2903 -0.0000
vn -0.8819 0.4714 -0.0000
vn -0.7730 0.6344 -0.0000
vn -0.6344 0.7730 -0.0000
vn -0.4714 0.8819 -0.0000
vn -0.0000 -0.0000 1.0000
vn -0.2903 0.9569 -0.0000
vn -0.0980 0.9952 -0.0000
vn -0.0000 -0.0000 -1.0000
vt 0.423051 0.466119
vt 0.367993 0.397775
vt 0.392175 0.373148
vt 0.459586 0.429461
vt 0.411127 0.344241
vt 0.488246 0.386348
vt 0.424118 0.312169
vt 0.507928 0.338482
vt 0.430657 0.278171
vt 0.517899 0.287749
vt 0.430507 0.243547
vt 0.517830 0.236137
vt 0.423694 0.209614
vt 0.507810 0.185647
vt 0.410494 0.177642
vt 0.488352 0.138193
vt 0.392045 0.148955
vt 0.460356 0.095489
vt 0.368324 0.124685
vt 0.424674 0.059007
vt 0.340286 0.105719
vt 0.382512 0.030215
vt 0.309029 0.092760
vt 0.335436 0.010312
vt 0.275780 0.086303
vt 0.285281 0.000139
vt 0.241851 0.086603
vt 0.234035 0.000139
vt 0.208583 0.093659
vt 0.183748 0.010329
vt 0.177287 0.107203
vt 0.136427 0.030301
vt 0.149192 0.126713
vt 0.093952 0.059241
vt 0.125385 0.151443
vt 0.057981 0.095961
vt 0.106771 0.180451
vt 0.029867 0.138955
vt 0.094034 0.212657
vt 0.010582 0.186478
vt 0.087617 0.246898
vt 0.000655 0.236650
vt 0.086757 0.281467
vt 0.000139 0.287592
vt 0.092654 0.315131
vt 0.009169 0.337676
vt 0.105042 0.346730
vt 0.027686 0.385094
vt 0.123436 0.375109
vt 0.055163 0.428006
vt 0.147125 0.399192
vt 0.090629 0.464694
vt 0.175194 0.418034
vt 0.132745 0.493681
vt 0.206623 0.431077
vt 0.179896 0.513810
vt 0.240093 0.437654
vt 0.230211 0.524237
vt 0.274290 0.437490
vt 0.281701 0.524512
vt 0.307873 0.430575
vt 0.332321 0.514598
vt 0.329223 0.562245
vt 0.364516 0.576864
vt 0.396279 0.598088
vt 0.423291 0.625100
vt 0.444514 0.656863
vt 0.459133 0.692156
vt 0.466586 0.729623
vt 0.466586 0.767824
vt 0.459133 0.805291
vt 0.444514 0.840584
vt 0.423291 0.872347
vt 0.396279 0.899359
vt 0.364516 0.920582
vt 0.329223 0.935201
vt 0.291756 0.942654
vt 0.253555 0.942654
vt 0.216088 0.935201
vt 0.180795 0.920582
vt 0.149032 0.899359
vt 0.122020 0.872346
vt 0.100796 0.840584
vt 0.086178 0.805290
vt 0.078725 0.767823
vt 0.078725 0.729622
vt 0.086178 0.692156
vt 0.100797 0.656862
vt 0.122020 0.625100
vt 0.149032 0.598087
vt 0.180795 0.576864
vt 0.216088 0.562245
vt 0.253555 0.554793
vt 0.291756 0.554793
vt 0.339521 0.417166
vt 0.380066 0.494876
s 0
usemtl 
f 1/1/1 2/2/1 4/3/1 3/4/1
f 3/4/2 4/3/2 6/5/2 5/6/2
f 5/6/3 6/5/3 8/7/3 7/8/3
f 7/8/4 8/7/4 10/9/4 9/10/4
f 9/10/5 10/9/5 12/11/5 11/12/5
f 11/12/6 12/11/6 14/13/6 13/14/6
f 13/14/7 14/13/7 16/15/7 15/16/7
f 15/16/8 16/15/8 18/17/8 17/18/8
f 17/18/9 18/17/9 20/19/9 19/20/9
f 19/20/10 20/19/10 22/21/10 21/22/10
f 21/22/11 22/21/11 24/23/11 23/24/11
f 23/24/12 24/23/12 26/25/12 25/26/12
f 25/26/13 26/25/13 28/27/13 27/28/13
f 27/28/14 28/27/14 30/29/14 29/30/14
f 29/30/15 30/29/15 32/31/15 31/32/15
f 31/32/16 32/31/16 34/33/16 33/34/16
f 33/34/17 34/33/17 36/35/17 35/36/17
f 35/36/18 36/35/18 38/37/18 37/38/18
f 37/38/19 38/37/19 40/39/19 39/40/19
f 39/40/20 40/39/20 42/41/20 41/42/20
f 41/42/21 42/41/21 44/43/21 43/44/21
f 43/44/22 44/43/22 46/45/22 45/46/22
f 45/46/23 46/45/23 48/47/23 47/48/23
f 47/48/24 48/47/24 50/49/24 49/50/24
f 49/50/25 50/49/25 52/51/25 51/52/25
f 51/52/26 52/51/26 54/53/26 53/54/26
f 53/54/27 54/53/27 56/55/27 55/56/27
f 55/56/28 56/55/28 58/57/28 57/58/28
f 57/58/29 58/57/29 60/59/29 59/60/29
f 59/60/30 60/59/30 62/61/30 61/62/30
f 42/63/31 40/64/31 38/65/31 36/66/31 34/67/31 32/68/31 30/69/31 28/70/31 26/71/31 24/72/31 22/73/31 20/74/31 18/75/31 16/76/31 14/77/31 12/78/31 10/79/31 8/80/31 6/81/31 4/82/31 2/83/31 64/84/31 62/85/31 60/86/31 58/87/31 56/88/31 54/89/31 52/90/31 50/91/31 48/92/31 46/93/31 44/94/31
f 61/62/32 62/61/32 64/95/32 63/96/32
f 63/96/33 64/95/33 2/2/33 1/1/33
f 1/1/34 3/4/34 5/6/34 7/8/34 9/10/34 11/12/34 13/14/34 15/16/34 17/18/34 19/20/34 21/22/34 23/24/34 25/26/34 27/28/34 29/30/34 31/32/34 33/34/34 35/36/34 37/38/34 39/40/34 41/42/34 43/44/34 45/46/34 47/48/34 49/50/34 51/52/34 53/54/34 55/56/34 57/58/34 59/60/34 61/62/34 63/96/34
